<?xml version="1.0" encoding="UTF-8"?>
<svg id="Layer_1" data-name="Layer 1" xmlns="http://www.w3.org/2000/svg" viewBox="0 0 487.59 133.39">
  <defs>
    <style>
      .cls-1 {
        fill: #fff;
      }
    </style>
  </defs>
  <g>
    <path class="cls-1" d="M105.42,55.41c-.79-.29-1.22-.43-2.74-.43-4.25,0-11.38,3.1-18.36,9.94-7.49,7.34-11.81,15.99-11.81,22.61,0,5.18,2.38,7.92,5.54,7.92,2.23,0,6.26-1.66,10.58-6.62l5.47,4.75c-5.47,6.34-11.52,9.07-16.06,9.07-9.5,0-12.75-8.5-12.75-15.12,0-8.86,5.62-19.59,13.97-27.65,8.21-7.99,16.85-12.1,23.4-12.1,2.81,0,3.46.29,5.18.86l-2.45,6.77Z"/>
    <path class="cls-1" d="M138.54,65.42c-1.15,3.17-2.95,7.42-5.18,11.45-2.74,6.41-6.05,15.12-9.5,25.13l-6.41-2.16,3.31-8.86c-5.26,7.13-10.51,11.16-14.19,11.16-4.82,0-7.34-4.1-7.34-9.36,0-14.33,21.03-31.18,34.27-32.55l.29,3.1,4.75,2.09ZM114.64,78.53c-6.05,5.98-8.28,11.16-8.28,14.4,0,1.01.14,1.73,1.15,1.73,2.81,0,6.12-4.46,7.7-6.19,4.39-4.75,7.42-7.99,9.72-11.52.58-.86,1.15-1.73,1.66-2.59.86-2.09,1.73-3.96,2.52-5.69-4.68,1.8-10.01,5.4-14.47,9.87Z"/>
    <path class="cls-1" d="M173.03,73.78l-6.34-3.46c.58-.94,1.08-2.16,1.08-3.02,0-.72-1.15-1.08-3.31-1.01-2.23.07-4.75.86-7.92,2.95-3.1,2.09-4.18,4.03-4.18,4.54,0,.29.72.5,1.51.65,2.02.36,5.83,1.3,9.29,2.45,3.74,1.22,6.62,4.39,6.62,8.71,0,3.96-2.45,8.06-7.42,11.23-4.32,2.74-12.67,5.98-18.65,5.98-4.97,0-11.16-2.74-11.16-9.07,0-4.97,4.39-9.43,13.32-12.03l2.02,6.91c-6.55,1.94-8.14,4.25-8.14,5.11s1.44,1.87,3.96,1.87c4.32,0,11.38-2.74,14.76-4.82,3.38-2.09,4.1-3.74,4.1-5.18,0-.86-.5-1.58-1.73-1.94-3.53-1.08-4.9-1.44-8.57-2.16s-7.27-3.1-7.27-7.49c0-3.96,3.46-7.99,7.42-10.66,2.88-1.94,7.85-4.25,12.6-4.25,6.48,0,9.87,3.74,9.87,8.35,0,1.94-.36,3.6-1.87,6.34Z"/>
    <path class="cls-1" d="M208.24,73.78l-6.34-3.46c.58-.94,1.08-2.16,1.08-3.02,0-.72-1.15-1.08-3.31-1.01-2.23.07-4.75.86-7.92,2.95-3.1,2.09-4.18,4.03-4.18,4.54,0,.29.72.5,1.51.65,2.02.36,5.83,1.3,9.29,2.45,3.74,1.22,6.62,4.39,6.62,8.71,0,3.96-2.45,8.06-7.42,11.23-4.32,2.74-12.67,5.98-18.65,5.98-4.97,0-11.16-2.74-11.16-9.07,0-4.97,4.39-9.43,13.32-12.03l2.02,6.91c-6.55,1.94-8.14,4.25-8.14,5.11s1.44,1.87,3.96,1.87c4.32,0,11.38-2.74,14.76-4.82,3.38-2.09,4.11-3.74,4.11-5.18,0-.86-.5-1.58-1.73-1.94-3.53-1.08-4.9-1.44-8.57-2.16-3.67-.72-7.27-3.1-7.27-7.49,0-3.96,3.46-7.99,7.42-10.66,2.88-1.94,7.85-4.25,12.6-4.25,6.48,0,9.87,3.74,9.87,8.35,0,1.94-.36,3.6-1.87,6.34Z"/>
    <path class="cls-1" d="M225.16,67.3c-4.54,9.29-10.51,24.41-12.53,31.25l-6.91-2.02c2.02-6.84,8.71-23.55,12.96-32.4l6.48,3.17ZM230.49,54.77l-2.02,4.46-6.48-3.02,2.02-4.46,6.48,3.02Z"/>
    <path class="cls-1" d="M246.18,81.55c-5.11,3.67-12.1,5.4-16.92,6.12-.21,1.15-.36,2.3-.36,3.6,0,3.1,1.01,4.54,2.52,4.54,1.22,0,3.17-.58,6.27-3.67l5.04,5.04c-4.32,4.32-8.14,5.83-11.3,5.83-5.62,0-9.72-4.61-9.72-11.74,0-10.01,6.98-19.59,15.55-26.79,4.11-3.46,7.27-4.54,9.94-4.54,4.97,0,7.49,3.82,7.49,7.92,0,4.82-3.02,9.72-8.5,13.68ZM247.19,67.15c-4.25,0-12.38,9.79-14.62,13.03,6.19-1.37,14.91-6.34,14.91-12.31,0-.29,0-.72-.29-.72Z"/>
    <path class="cls-1" d="M306.66,95.88c1.01,2.16,2.16,4.46,3.46,6.84l-6.34,3.46c-1.01-1.94-2.02-3.89-2.95-5.83-4.54,2.81-8.86,4.03-12.38,4.03-9.43,0-17.43-7.42-17.43-18.72,0-8.71,5.19-19.51,12.17-27,6.62-7.13,13.97-10.58,20.67-10.58,10.66,0,17.06,7.85,17.06,18.43,0,15.19-10.73,26.5-14.26,29.38ZM303.85,55.27c-4.39,0-9.87,2.45-15.34,8.28-6.27,6.7-10.3,15.41-10.3,22.11,0,6.34,3.82,11.52,10.22,11.52,2.3,0,5.62-.94,9.29-3.38-2.88-6.34-4.82-11.81-6.05-15.99l6.91-2.02c1.15,3.6,2.66,7.99,4.82,13.18,4.46-4.61,10.3-12.31,10.3-22.47,0-6.91-3.74-11.23-9.86-11.23Z"/>
    <path class="cls-1" d="M356.41,65.57c-2.02,4.1-4.54,9.5-8.28,16.27-1.8,3.24-3.46,6.77-4.1,8.14-1.94,4.1-3.6,8.78-4.1,11.09l-6.77-1.58c.29-1.3,2.02-5.76,2.38-6.84-6.41,5.83-11.52,8.93-13.25,8.93-2.81,0-4.9-2.09-4.82-4.97.07-2.38,3.17-8.71,5.9-14.47,3.96-8.35,8.71-17.43,10.37-20.31l6.34,3.46c-3.46,6.34-6.41,11.74-10.22,19.87-.86,1.8-1.87,4.1-3.17,6.48l.22.07c3.24-2.52,10.37-7.2,12.53-9.79.72-.79,1.37-1.8,2.16-3.31,1.37-2.59,5.76-10.95,8.35-16.2l6.48,3.17Z"/>
    <path class="cls-1" d="M369.37,67.3c-4.54,9.29-10.51,24.41-12.53,31.25l-6.91-2.02c2.02-6.84,8.71-23.55,12.96-32.4l6.48,3.17ZM374.7,54.77l-2.02,4.46-6.48-3.02,2.02-4.46,6.48,3.02Z"/>
    <path class="cls-1" d="M393.06,88.18c-1.87,4.9-3.67,10.37-4.32,12.67l-6.91-2.02c1.15-3.96,3.03-9.5,4.46-13.25.86-2.23,3.17-8.21,5.98-14.76l-.07-.07c-4.1,3.89-8.06,6.98-11.3,10.66-3.24,3.67-5.54,7.71-7.63,12.6-.72,1.73-1.51,3.53-2.09,5.47l-6.84-2.3c1.15-3.1,2.38-6.19,3.38-8.86,1.08-2.88,4.54-10.73,6.27-15.12,1.37-3.46,3.17-7.99,3.74-10.23l7.06,1.73c-.22,1.08-2.23,5.83-3.1,8.06,3.82-3.82,7.78-7.92,12.6-11.09,2.66-1.73,5.04-1.73,6.34-.5,1.51,1.37,1.94,3.53.94,5.9-2.23,5.11-5.76,13.9-8.5,21.1Z"/>
    <path class="cls-1" d="M425.38,88.18c-1.87,4.9-3.67,10.37-4.32,12.67l-6.91-2.02c1.15-3.96,3.02-9.5,4.46-13.25.86-2.23,3.17-8.21,5.98-14.76l-.07-.07c-4.11,3.89-8.06,6.98-11.3,10.66-3.24,3.67-5.54,7.71-7.63,12.6-.72,1.73-1.51,3.53-2.09,5.47l-6.84-2.3c1.15-3.1,2.38-6.19,3.38-8.86,1.08-2.88,4.54-10.73,6.26-15.12,1.37-3.46,3.17-7.99,3.74-10.23l7.06,1.73c-.21,1.08-2.23,5.83-3.1,8.06,3.82-3.82,7.78-7.92,12.6-11.09,2.66-1.73,5.04-1.73,6.34-.5,1.51,1.37,1.95,3.53.94,5.9-2.23,5.11-5.76,13.9-8.5,21.1Z"/>
  </g>
  <path class="cls-1" d="M457.14,9.14c2.42-.8,4.77.9,6.49,2.41,2.12,1.87,4.09,4,6.21,5.85.91.8,1.49,1.04,2.69,1.18,2.85.32,5.81.31,8.67.62,4.44.48,7.45,2.29,6.03,7.29-.96,3.39-3.3,6.74-4.54,10.05-.44,1.16-.3,1.71-.04,2.87.54,2.45,1.18,4.86,1.76,7.3.72,3.06,1.35,7.3-2.54,8.48-3.56,1.08-9.27-.58-13.06-.83-1.05-.07-1.63.06-2.55.56-2.79,1.51-5.43,3.63-8.25,5.09-3.92,2.02-6.93,1.52-8.47-2.86-.89-2.54-1.22-5.77-1.74-8.44-.32-1.62-.39-2.99-1.62-4.2-2.13-2.1-4.86-3.92-7.08-5.98-3.88-3.6-4.08-6.89.48-9.91,2.61-1.72,5.68-3.03,8.37-4.65,1.04-.62,1.46-1.09,1.95-2.19,1.15-2.58,2.06-5.33,3.2-7.91.79-1.78,2.05-4.06,4.03-4.71Z"/>
  <path class="cls-1" d="M462.8,84.23c1.94-.06,3.29,1.68,4.21,3.16,1.14,1.82,2.12,3.79,3.27,5.61.49.78.86,1.08,1.71,1.44,2.01.84,4.17,1.48,6.19,2.31,3.13,1.3,4.94,3.27,2.83,6.62-1.43,2.26-3.86,4.21-5.47,6.35-.57.75-.59,1.18-.65,2.08-.13,1.9-.18,3.8-.29,5.7-.13,2.38-.59,5.61-3.67,5.63-2.83.02-6.64-2.42-9.35-3.41-.75-.28-1.2-.31-1.98-.14-2.36.5-4.74,1.48-7.11,1.93-3.29.63-5.38-.38-5.56-3.91-.1-2.05.35-4.47.55-6.53.12-1.25.36-2.27-.28-3.41-1.1-1.99-2.7-3.91-3.88-5.89-2.06-3.46-1.49-5.9,2.48-7.12,2.27-.7,4.79-.99,7.1-1.59.89-.23,1.3-.48,1.9-1.18,1.4-1.63,2.65-3.44,4.04-5.08.96-1.13,2.37-2.52,3.95-2.57Z"/>
  <path class="cls-1" d="M240.72.33c1.63-.84,3.49.1,4.88.98,1.72,1.09,3.36,2.38,5.07,3.46.73.46,1.17.57,2.04.53,2.06-.1,4.16-.44,6.22-.54,3.2-.16,5.55.79,5.11,4.5-.3,2.51-1.58,5.16-2.09,7.65-.18.87-.02,1.25.29,2.04.66,1.67,1.39,3.32,2.07,4.98.86,2.09,1.78,5.03-.84,6.3-2.4,1.17-6.65.64-9.37.89-.75.07-1.15.23-1.75.68-1.81,1.39-3.44,3.19-5.28,4.54-2.56,1.87-4.75,1.86-6.34-1.08-.92-1.7-1.52-3.96-2.19-5.8-.41-1.11-.62-2.08-1.62-2.8-1.75-1.25-3.9-2.24-5.7-3.45-3.16-2.12-3.67-4.43-.77-7.09,1.66-1.52,3.69-2.79,5.42-4.24.67-.56.91-.94,1.14-1.78.53-1.96.86-4.02,1.38-5.98.36-1.36,1-3.12,2.33-3.8Z"/>
  <path class="cls-1" d="M31.61,33.75c2.26-.74,4.46.84,6.06,2.25,1.98,1.75,3.82,3.73,5.81,5.47.85.74,1.39.97,2.51,1.1,2.67.3,5.43.29,8.1.58,4.15.45,6.96,2.14,5.64,6.81-.89,3.16-3.08,6.3-4.24,9.39-.41,1.09-.28,1.6-.04,2.68.51,2.28,1.1,4.54,1.64,6.82.67,2.85,1.26,6.82-2.37,7.92-3.32,1.01-8.66-.54-12.2-.77-.98-.06-1.52.06-2.38.52-2.6,1.41-5.07,3.39-7.71,4.75-3.66,1.88-6.48,1.42-7.91-2.67-.83-2.37-1.14-5.39-1.63-7.89-.29-1.51-.37-2.79-1.51-3.92-1.99-1.96-4.54-3.67-6.62-5.59-3.63-3.36-3.81-6.43.45-9.25,2.43-1.61,5.31-2.83,7.82-4.34.97-.58,1.36-1.02,1.82-2.05,1.08-2.41,1.92-4.98,2.99-7.39.74-1.67,1.91-3.79,3.76-4.4Z"/>
  <path class="cls-1" d="M14.23,87.01c.77.42.9,1.42.92,2.21.03.98-.05,1.97-.02,2.95.01.42.09.62.34.96.59.8,1.29,1.54,1.88,2.33.92,1.23,1.17,2.42-.42,3.24-1.08.55-2.48.75-3.61,1.22-.4.16-.5.33-.73.66-.49.71-.95,1.44-1.43,2.16-.6.9-1.53,2.06-2.74,1.35-1.11-.64-2.03-2.48-2.86-3.49-.23-.28-.4-.4-.74-.51-1.04-.35-2.19-.52-3.22-.89-1.43-.52-2.01-1.39-1.27-2.81.43-.82,1.17-1.66,1.72-2.42.33-.46.66-.8.68-1.4.03-1.03-.15-2.15-.15-3.2,0-1.83.78-2.65,2.62-2.21,1.05.25,2.1.72,3.14,1.02.4.12.62.11,1.01-.02.92-.31,1.83-.73,2.75-1.05.64-.22,1.51-.44,2.14-.09Z"/>
  <path class="cls-1" d="M39.6,100.63c1.64-.11,2.84,1.32,3.68,2.54,1.03,1.51,1.92,3.15,2.96,4.65.44.64.76.89,1.5,1.16,1.74.65,3.59,1.12,5.33,1.77,2.7,1.01,4.3,2.62,2.61,5.53-1.14,1.97-3.14,3.69-4.44,5.57-.46.66-.46,1.02-.48,1.79-.05,1.62-.03,3.23-.06,4.85-.04,2.03-.32,4.78-2.94,4.9-2.4.11-5.71-1.84-8.04-2.6-.64-.21-1.03-.22-1.69-.06-1.98.5-3.97,1.41-5.98,1.87-2.78.64-4.58-.15-4.85-3.14-.15-1.73.16-3.8.26-5.56.06-1.06.23-1.93-.34-2.89-1-1.65-2.42-3.23-3.48-4.87-1.86-2.87-1.46-4.96,1.88-6.12,1.91-.66,4.04-.99,5.98-1.57.75-.22,1.09-.45,1.57-1.06,1.13-1.43,2.14-3.01,3.27-4.44.78-.99,1.93-2.22,3.27-2.31Z"/>
  <path class="cls-1" d="M294.15,21.6c.9.57.98,1.78.95,2.74-.04,1.18-.2,2.39-.24,3.57-.02.51.06.76.34,1.18.66,1.01,1.45,1.96,2.11,2.97,1.03,1.56,1.24,3.02-.75,3.9-1.35.59-3.06.73-4.46,1.21-.49.17-.63.36-.94.75-.65.83-1.26,1.68-1.89,2.51-.8,1.05-2,2.38-3.42,1.44-1.3-.86-2.28-3.15-3.21-4.45-.26-.36-.45-.51-.86-.68-1.23-.5-2.62-.79-3.85-1.32-1.7-.73-2.34-1.84-1.33-3.5.59-.97,1.54-1.93,2.27-2.82.44-.53.86-.92.93-1.64.11-1.25-.03-2.62.05-3.89.13-2.22,1.14-3.16,3.34-2.48,1.25.38,2.49,1.03,3.74,1.47.48.17.74.18,1.23.05,1.14-.31,2.27-.76,3.42-1.07.79-.22,1.86-.42,2.6.05Z"/>
</svg>