<?xml version="1.0" encoding="UTF-8"?>
<svg id="Layer_1" data-name="Layer 1" xmlns="http://www.w3.org/2000/svg" viewBox="0 0 51.42 52.2">
  <defs>
    <style>
      .cls-1 {
        fill: #031b2f;
      }
    </style>
  </defs>
  <path class="cls-1" d="M20.97.2c2.42-.8,4.77.9,6.49,2.41,2.12,1.87,4.09,4,6.21,5.85.91.8,1.49,1.04,2.69,1.18,2.85.32,5.81.31,8.67.62,4.44.48,7.45,2.29,6.03,7.29-.96,3.39-3.3,6.74-4.54,10.05-.44,1.16-.3,1.71-.04,2.87.54,2.45,1.18,4.86,1.76,7.3.72,3.06,1.35,7.3-2.54,8.48-3.56,1.08-9.27-.58-13.06-.83-1.05-.07-1.63.06-2.55.56-2.79,1.51-5.43,3.63-8.25,5.09-3.92,2.02-6.93,1.52-8.47-2.86-.89-2.54-1.22-5.77-1.74-8.44-.32-1.62-.39-2.99-1.62-4.2-2.13-2.1-4.86-3.92-7.08-5.98-3.88-3.6-4.08-6.89.48-9.91,2.61-1.72,5.68-3.03,8.37-4.65,1.04-.62,1.46-1.09,1.95-2.19,1.15-2.58,2.06-5.33,3.2-7.91.79-1.78,2.05-4.06,4.03-4.71Z"/>
</svg>