<?xml version="1.0" encoding="UTF-8"?>
<svg id="Layer_1" data-name="Layer 1" xmlns="http://www.w3.org/2000/svg" viewBox="0 0 227.77 56.49">
  <defs>
    <style>
      .cls-1 {
        fill: #031b2f;
      }
    </style>
  </defs>
  <path class="cls-1" d="M108.88,31.01c-.43.3-.64.69-.64,1.16s.17.86.52,1.2.78.5,1.31.5c.59,0,1.16-.2,1.7-.59.4-.3.66-.66.79-1.09.09-.28.13-.82.13-1.61v-.66c-.42.14-1.09.31-2,.5s-1.51.39-1.79.57Z"/>
  <path class="cls-1" d="M124.53,25.7c-.78,0-1.44.31-1.96.93s-.79,1.55-.79,2.78c0,1.33.18,2.29.55,2.88.53.86,1.27,1.29,2.23,1.29.76,0,1.4-.32,1.93-.97s.8-1.61.8-2.89c0-1.43-.26-2.46-.77-3.09s-1.18-.94-1.98-.94Z"/>
  <path class="cls-1" d="M28.65,22.61c-.42-.4-.96-.67-1.61-.81-.48-.11-1.43-.16-2.85-.16h-1.56v11.38h2.59c.97,0,1.67-.05,2.1-.16.56-.14,1.03-.38,1.4-.71s.67-.89.91-1.66.35-1.82.35-3.15-.12-2.35-.35-3.06-.56-1.27-.98-1.66Z"/>
  <path class="cls-1" d="M42.15,25.87c-.86,0-1.58.33-2.17.98s-.88,1.6-.88,2.84.29,2.18.88,2.84,1.31.98,2.17.98,1.58-.33,2.16-.98.87-1.61.87-2.86-.29-2.16-.87-2.81-1.3-.98-2.16-.98Z"/>
  <path class="cls-1" d="M96.8,25.87c-.86,0-1.58.33-2.17.98s-.88,1.6-.88,2.84.29,2.18.88,2.84,1.31.98,2.17.98,1.58-.33,2.16-.98.87-1.61.87-2.86-.29-2.16-.87-2.81-1.3-.98-2.16-.98Z"/>
  <polygon class="cls-1" points="144.03 29.11 148.72 29.11 146.35 22.74 144.03 29.11"/>
  <path class="cls-1" d="M213.97,0H13.8C6.18,0,0,6.18,0,13.8v28.89C0,50.31,6.18,56.49,13.8,56.49h200.17c7.62,0,13.8-6.18,13.8-13.8V13.8C227.77,6.18,221.59,0,213.97,0ZM192.96,26.29v-12.61c0-.83.67-1.5,1.5-1.5s1.5.67,1.5,1.5v12.61h2.39l-3.89,6.74-3.89-6.74h2.39ZM33.04,31.14c-.43,1.25-1.04,2.26-1.84,3.04-.6.59-1.41,1.04-2.44,1.37-.77.24-1.79.36-3.07.36h-6.53v-17.18h6.34c1.43,0,2.52.11,3.27.33,1.01.3,1.87.82,2.59,1.58s1.27,1.69,1.64,2.78.56,2.45.56,4.06c0,1.41-.18,2.63-.53,3.66ZM46.75,34.34c-1.21,1.24-2.74,1.86-4.59,1.86-1.14,0-2.23-.26-3.26-.77s-1.82-1.27-2.36-2.27-.81-2.21-.81-3.64c0-1.09.27-2.15.81-3.18s1.3-1.8,2.29-2.34,2.09-.81,3.31-.81c1.88,0,3.43.61,4.63,1.83s1.8,2.77,1.8,4.63-.61,3.44-1.82,4.68ZM64.09,35.91h-3.16l-2.14-8-2.11,8h-3.2l-3.94-12.45h3.2l2.33,8.16,2.14-8.16h3.18l2.07,8.16,2.38-8.16h3.25l-4,12.45ZM81.14,35.91h-3.29v-6.35c0-1.34-.07-2.21-.21-2.61s-.37-.7-.69-.92-.7-.33-1.14-.33c-.57,0-1.08.16-1.54.47s-.76.73-.93,1.24-.25,1.47-.25,2.86v5.64h-3.29v-12.45h3.06v1.83c1.09-1.41,2.45-2.11,4.1-2.11.73,0,1.39.13,1.99.39s1.06.6,1.37,1,.52.87.64,1.38.18,1.25.18,2.21v7.73ZM87.77,35.91h-3.29v-17.18h3.29v17.18ZM101.4,34.34c-1.21,1.24-2.74,1.86-4.59,1.86-1.14,0-2.23-.26-3.26-.77s-1.82-1.27-2.36-2.27-.81-2.21-.81-3.64c0-1.09.27-2.15.81-3.18s1.3-1.8,2.29-2.34,2.09-.81,3.31-.81c1.88,0,3.43.61,4.63,1.83s1.8,2.77,1.8,4.63-.61,3.44-1.82,4.68ZM113.36,35.91c-.09-.22-.19-.54-.32-.97-.05-.2-.09-.32-.12-.39-.56.55-1.16.96-1.8,1.23s-1.32.41-2.05.41c-1.28,0-2.29-.35-3.03-1.04s-1.11-1.57-1.11-2.64c0-.7.17-1.33.5-1.88s.81-.97,1.41-1.27,1.48-.55,2.62-.77c1.54-.29,2.61-.56,3.2-.81v-.33c0-.63-.16-1.08-.47-1.35s-.9-.4-1.77-.4c-.59,0-1.04.12-1.37.35s-.59.63-.8,1.21l-2.99-.54c.34-1.2.91-2.09,1.73-2.67s2.04-.87,3.66-.87c1.47,0,2.56.17,3.28.52s1.22.79,1.52,1.32.44,1.52.44,2.95l-.04,3.84c0,1.09.05,1.9.16,2.42s.3,1.08.59,1.67h-3.26ZM130.57,35.91h-3.06v-1.83c-.51.71-1.11,1.24-1.8,1.59s-1.39.52-2.09.52c-1.43,0-2.65-.58-3.67-1.73s-1.53-2.76-1.53-4.82.5-3.71,1.49-4.81,2.25-1.65,3.76-1.65c1.39,0,2.59.58,3.61,1.73v-6.19h3.29v17.18ZM151.33,35.91l-1.5-3.9h-6.87l-1.42,3.9h-3.68l6.69-17.18h3.67l6.88,17.18h-3.77ZM160.22,35.91h-3.29v-17.18h3.29v17.18ZM166.88,35.91h-3.29v-17.18h3.29v17.18ZM210.21,38.6c0,1.1-.9,2-2,2h-27.5c-1.1,0-2-.9-2-2v-10.83c0-1.1.9-2,2-2s2,.9,2,2v8.83h23.5v-8.83c0-1.1.9-2,2-2s2,.9,2,2v10.83Z"/>
</svg>