<?xml version="1.0" encoding="UTF-8"?>
<svg id="Layer_1" data-name="Layer 1" xmlns="http://www.w3.org/2000/svg" viewBox="0 0 179.12 72">
  <defs>
    <style>
      .cls-1 {
        fill: #1b5a6c;
      }

      .cls-2 {
        fill: #0a3d4d;
      }

      .cls-3 {
        fill: #fff;
      }
    </style>
  </defs>
  <g>
    <g>
      <rect class="cls-2" x="26.15" y="13.49" width="130.42" height="48.62" rx="14.19" ry="14.19"/>
      <rect class="cls-2" x="25.79" y="13.13" width="130.42" height="48.62" rx="14.19" ry="14.19"/>
      <rect class="cls-2" x="25.43" y="12.77" width="130.42" height="48.62" rx="14.19" ry="14.19"/>
      <rect class="cls-2" x="25.07" y="12.41" width="130.42" height="48.62" rx="14.19" ry="14.19"/>
      <rect class="cls-2" x="24.71" y="12.05" width="130.42" height="48.62" rx="14.19" ry="14.19"/>
      <rect class="cls-2" x="24.35" y="11.69" width="130.42" height="48.62" rx="14.19" ry="14.19"/>
    </g>
    <rect class="cls-1" x="24.35" y="11.69" width="130.42" height="48.62" rx="14.19" ry="14.19"/>
  </g>
  <g>
    <path class="cls-3" d="M37.39,38.69c-.05,0-.1-.02-.14-.06s-.06-.08-.06-.14c0-.02,0-.05.03-.1l2.75-4.35c-.54-.55-1.18-.98-1.9-1.26-.73-.29-1.48-.43-2.26-.43-.53,0-1.06.08-1.58.22-.52.15-1,.36-1.45.62v8.98c.95.55,1.97.83,3.06.83.67,0,1.26-.08,1.76-.25.5-.17.93-.36,1.29-.58.36-.22.64-.45.86-.66s.38-.39.49-.5c.04-.04.08-.06.13-.06.05,0,.1.02.14.06.04.04.06.08.06.14,0,.04-.02.08-.06.13-.28.36-.6.68-.96.94s-.75.49-1.16.66c-.41.17-.84.3-1.29.38-.45.08-.9.12-1.36.12-.78,0-1.53-.15-2.24-.44-.71-.29-1.34-.7-1.89-1.21-.54-.51-.98-1.11-1.3-1.8-.32-.69-.48-1.43-.48-2.23s.17-1.58.5-2.27c.33-.69.77-1.29,1.32-1.79.55-.5,1.19-.89,1.91-1.18.73-.28,1.49-.42,2.29-.42s1.59.14,2.34.43c.75.29,1.41.72,1.98,1.3l1.06-1.66c.03-.05.08-.08.14-.08.12,0,.18.05.18.16,0,.02-.01.05-.03.1l-3.94,6.3c-.05.09-.11.13-.18.13Z"/>
    <path class="cls-3" d="M49.24,43.36c-.12,0-.18-.06-.18-.18s.06-.18.18-.18h1.17v-5.23c-.25-.23-.53-.47-.86-.71-.33-.24-.67-.46-1.03-.67-.36-.21-.73-.39-1.1-.54-.37-.15-.73-.25-1.07-.29v7.44h1.31c.05,0,.1.02.14.05.04.03.06.07.06.13s-.02.1-.06.13c-.04.03-.08.05-.14.05h-5.18c-.12,0-.18-.06-.18-.18s.06-.18.18-.18h1.31v-4.05c-.19-.01-.37-.07-.54-.18-.17-.11-.32-.25-.44-.41-.12-.16-.22-.34-.29-.54-.07-.2-.1-.39-.1-.57,0-.19.04-.39.11-.59.07-.2.17-.39.3-.57.12-.18.27-.33.43-.46.17-.13.34-.22.54-.27v-3.02h-1.31c-.12,0-.18-.06-.18-.18,0-.11.06-.16.18-.16h5.18s.08.01.13.04.06.07.06.12-.02.1-.06.13c-.04.03-.08.05-.14.05h-1.31v2.85c.77.17,1.49.44,2.17.79.68.36,1.31.79,1.9,1.3v-4.94h-1.17c-.12,0-.18-.06-.18-.18,0-.11.06-.16.18-.16h2.67c.12,0,.18.05.18.16,0,.12-.06.18-.18.18h-1.15v10.66h1.15c.12,0,.18.06.18.18s-.06.18-.18.18h-2.67ZM43.79,35.75c-.29.12-.53.31-.73.57-.2.26-.3.58-.3.97,0,.13.03.27.08.42.05.15.12.3.22.42.09.13.2.24.32.33.12.09.26.14.41.15v-2.86Z"/>
    <path class="cls-3" d="M61.53,43.36c-.12,0-.18-.06-.18-.18s.06-.18.18-.18h1.58l-1.84-3.63c-.59-.5-1.24-.93-1.95-1.28-.71-.35-1.46-.58-2.22-.67l-2.64,5.58h2.3c.12,0,.18.06.18.18s-.06.18-.18.18h-3.71c-.13,0-.19-.06-.19-.19,0-.05.02-.09.06-.12.04-.03.08-.04.14-.04h1.02l1.01-2.11c-.21,0-.41-.05-.58-.15-.18-.1-.33-.23-.46-.4s-.23-.35-.3-.54-.1-.39-.1-.58c0-.36.09-.68.26-.95.17-.27.39-.5.66-.69.27-.19.58-.33.92-.42.34-.09.69-.14,1.04-.14h.18c.06,0,.12,0,.18.02l1.54-3.26-.72-1.42h-.86c-.12,0-.18-.06-.18-.18,0-.11.06-.16.18-.16h4.72c.12,0,.18.05.18.16,0,.12-.06.18-.19.18h-.8l5.39,10.66h1.06c.05,0,.1.02.14.05.04.03.06.07.06.13s-.02.1-.06.13c-.04.03-.08.05-.14.05h-5.66ZM56.63,37.38c-.29,0-.59.03-.9.09s-.6.16-.86.3-.47.34-.63.58c-.17.24-.25.54-.25.89,0,.14.03.29.08.44.05.15.13.3.22.42s.21.23.34.32c.13.08.27.13.42.13.08,0,.15,0,.19-.02l1.49-3.15h-.1ZM58.63,34.18l-1.38,2.91c.66.1,1.3.28,1.9.55.61.27,1.18.61,1.73,1l-2.26-4.46Z"/>
    <path class="cls-3" d="M79.11,41.68c0,.28-.06.52-.17.73-.11.21-.26.38-.44.52s-.39.25-.62.32c-.23.07-.47.11-.72.11-.38,0-.77-.09-1.14-.28s-.74-.42-1.07-.71c-.34-.29-.64-.6-.92-.94s-.5-.66-.67-.97c-.06-.11-.14-.24-.23-.41-.09-.17-.18-.34-.27-.51-.09-.18-.17-.34-.22-.5-.06-.16-.09-.29-.09-.38,0-.05,0-.11.03-.16.02-.05.06-.08.11-.08.04,0,.09.02.14.05.32.18.62.34.9.47.28.13.6.2.98.2.46,0,.88-.09,1.27-.28s.73-.44,1.01-.75c.28-.31.5-.68.66-1.09.15-.41.23-.84.23-1.29s-.08-.84-.23-1.25-.37-.76-.65-1.08c-.28-.31-.61-.57-1-.75s-.8-.28-1.25-.28c-.55,0-1.02.1-1.42.31-.4.21-.77.53-1.11.95v9.38h1.65c.12,0,.18.06.18.18s-.06.18-.18.18h-5.5c-.05,0-.1-.02-.14-.05-.04-.03-.06-.07-.06-.13s.02-.1.06-.13c.04-.03.08-.05.14-.05h1.33v-10.66h-1.33c-.05,0-.1-.02-.14-.05-.04-.03-.06-.07-.06-.13s.02-.09.06-.12.08-.04.13-.04h3.86l.02,1.07c.32-.34.69-.61,1.12-.79s.88-.28,1.36-.28c.51,0,.98.1,1.41.3.43.2.8.47,1.12.82.31.34.56.74.73,1.19.18.45.26.93.26,1.42s-.09.98-.27,1.42c-.18.45-.43.84-.74,1.19-.31.35-.69.62-1.12.82-.43.2-.9.3-1.41.3-.57,0-1.12-.15-1.63-.45.17.43.39.87.66,1.34.27.46.59.89.95,1.28.36.39.76.71,1.2.97.44.26.91.38,1.42.38.19,0,.38-.03.55-.1.18-.06.33-.15.46-.27s.24-.26.33-.42c.08-.16.13-.34.13-.54,0-.19-.02-.35-.06-.48-.04-.13-.09-.23-.14-.3-.06-.07-.12-.13-.19-.18-.07-.04-.14-.07-.2-.1-.08-.03-.11-.08-.11-.14,0-.11.07-.16.22-.16.23.03.43.17.59.42.16.25.24.56.24.94Z"/>
    <path class="cls-3" d="M88.55,43.36c-.12,0-.18-.06-.18-.18s.06-.18.18-.18h1.58l-1.84-3.63c-.59-.5-1.24-.93-1.95-1.28-.71-.35-1.46-.58-2.22-.67l-2.64,5.58h2.3c.12,0,.18.06.18.18s-.06.18-.18.18h-3.71c-.13,0-.19-.06-.19-.19,0-.05.02-.09.06-.12.04-.03.08-.04.14-.04h1.02l1.01-2.11c-.21,0-.41-.05-.58-.15-.18-.1-.33-.23-.46-.4s-.23-.35-.3-.54-.1-.39-.1-.58c0-.36.09-.68.26-.95.17-.27.39-.5.66-.69.27-.19.58-.33.92-.42.34-.09.69-.14,1.04-.14h.18c.06,0,.12,0,.18.02l1.54-3.26-.72-1.42h-.86c-.12,0-.18-.06-.18-.18,0-.11.06-.16.18-.16h4.72c.12,0,.18.05.18.16,0,.12-.06.18-.19.18h-.8l5.39,10.66h1.06c.05,0,.1.02.14.05.04.03.06.07.06.13s-.02.1-.06.13c-.04.03-.08.05-.14.05h-5.66ZM83.66,37.38c-.29,0-.59.03-.9.09s-.6.16-.86.3-.47.34-.63.58c-.17.24-.25.54-.25.89,0,.14.03.29.08.44.05.15.13.3.22.42s.21.23.34.32c.13.08.27.13.42.13.08,0,.15,0,.19-.02l1.49-3.15h-.1ZM85.66,34.18l-1.38,2.91c.66.1,1.3.28,1.9.55.61.27,1.18.61,1.73,1l-2.26-4.46Z"/>
    <path class="cls-3" d="M102.74,38.69c-.05,0-.1-.02-.14-.06-.04-.04-.06-.08-.06-.14,0-.02.01-.05.03-.1l2.75-4.35c-.54-.55-1.18-.98-1.9-1.26-.73-.29-1.48-.43-2.26-.43-.53,0-1.06.08-1.58.22-.52.15-1,.36-1.45.62v8.98c.95.55,1.97.83,3.06.83.67,0,1.26-.08,1.76-.25s.93-.36,1.29-.58c.36-.22.65-.45.86-.66.22-.22.38-.39.49-.5.04-.04.09-.06.13-.06.05,0,.1.02.14.06s.06.08.06.14c0,.04-.02.08-.06.13-.28.36-.6.68-.96.94-.36.27-.75.49-1.16.66-.41.17-.84.3-1.29.38s-.9.12-1.36.12c-.78,0-1.53-.15-2.24-.44-.71-.29-1.34-.7-1.89-1.21-.54-.51-.98-1.11-1.3-1.8-.32-.69-.48-1.43-.48-2.23s.17-1.58.5-2.27c.33-.69.77-1.29,1.32-1.79.55-.5,1.19-.89,1.91-1.18.73-.28,1.49-.42,2.29-.42s1.59.14,2.34.43c.75.29,1.41.72,1.98,1.3l1.06-1.66c.03-.05.08-.08.14-.08.12,0,.18.05.18.16,0,.02-.01.05-.03.1l-3.94,6.3c-.05.09-.11.13-.18.13Z"/>
    <path class="cls-3" d="M117.56,33.97s.02.05.02.08c0,.05-.02.09-.06.12-.04.03-.08.04-.14.04s-.1-.02-.13-.06l-.93-1.79h-2.43v10.66h1.47c.05,0,.1.02.14.05s.06.07.06.13c0,.12-.06.18-.18.18h-5.55c-.11,0-.16-.06-.16-.18s.06-.18.18-.18h1.49v-10.66h-2.43l-.91,1.78c-.03.05-.08.08-.14.08-.05,0-.1-.02-.14-.05-.04-.03-.06-.07-.06-.13,0-.03.01-.07.03-.11l1.54-2.98c.03-.06.08-.1.16-.1.11,0,.16.05.16.16,0,.04,0,.07-.02.1l-.45.91h7.07l-.45-.88s-.03-.07-.03-.1c0-.05.02-.1.06-.13.04-.03.08-.05.13-.05.06,0,.11.03.14.08l1.55,3.02Z"/>
    <path class="cls-3" d="M127.34,43.3s-.06.04-.1.06h-8.72c-.12,0-.18-.06-.18-.18,0-.05.02-.1.06-.13.04-.03.08-.05.14-.05h1.33v-10.66h-1.33c-.05,0-.1-.02-.14-.05-.04-.03-.06-.07-.06-.13s.02-.09.06-.12c.04-.03.08-.04.12-.04h7.92c.11,0,.16.05.16.14v1.46c0,.11-.06.16-.18.16s-.18-.06-.18-.18v-1.25h-3.86v3.22h3.68v-.64s.02-.08.05-.12.07-.06.13-.06c.12,0,.18.06.18.18v1.62c0,.12-.06.18-.18.18s-.18-.06-.18-.18v-.64h-3.68v7.1h4.64v-1.79c0-.12.06-.18.18-.18s.18.05.18.16v2s-.02.08-.05.1Z"/>
    <path class="cls-3" d="M139.11,41.68c0,.28-.06.52-.17.73-.11.21-.26.38-.44.52s-.39.25-.62.32c-.23.07-.47.11-.72.11-.38,0-.77-.09-1.14-.28s-.74-.42-1.07-.71c-.34-.29-.64-.6-.92-.94s-.5-.66-.67-.97c-.06-.11-.14-.24-.23-.41-.09-.17-.18-.34-.27-.51-.09-.18-.17-.34-.22-.5-.06-.16-.09-.29-.09-.38,0-.05,0-.11.03-.16.02-.05.06-.08.11-.08.04,0,.09.02.14.05.32.18.62.34.9.47.28.13.6.2.98.2.46,0,.88-.09,1.27-.28s.73-.44,1.01-.75c.28-.31.5-.68.66-1.09.15-.41.23-.84.23-1.29s-.08-.84-.23-1.25-.37-.76-.65-1.08c-.28-.31-.61-.57-1-.75s-.8-.28-1.25-.28c-.55,0-1.02.1-1.42.31-.4.21-.77.53-1.11.95v9.38h1.65c.12,0,.18.06.18.18s-.06.18-.18.18h-5.5c-.05,0-.1-.02-.14-.05-.04-.03-.06-.07-.06-.13s.02-.1.06-.13c.04-.03.08-.05.14-.05h1.33v-10.66h-1.33c-.05,0-.1-.02-.14-.05-.04-.03-.06-.07-.06-.13s.02-.09.06-.12.08-.04.13-.04h3.86l.02,1.07c.32-.34.69-.61,1.12-.79s.88-.28,1.36-.28c.51,0,.98.1,1.41.3.43.2.8.47,1.12.82.31.34.56.74.73,1.19.18.45.26.93.26,1.42s-.09.98-.27,1.42c-.18.45-.43.84-.74,1.19-.31.35-.69.62-1.12.82-.43.2-.9.3-1.41.3-.57,0-1.12-.15-1.63-.45.17.43.39.87.66,1.34.27.46.59.89.95,1.28.36.39.76.71,1.2.97.44.26.91.38,1.42.38.19,0,.38-.03.55-.1.18-.06.33-.15.46-.27s.24-.26.33-.42c.08-.16.13-.34.13-.54,0-.19-.02-.35-.06-.48-.04-.13-.09-.23-.14-.3-.06-.07-.12-.13-.19-.18-.07-.04-.14-.07-.2-.1-.08-.03-.11-.08-.11-.14,0-.11.07-.16.22-.16.23.03.43.17.59.42.16.25.24.56.24.94Z"/>
    <path class="cls-3" d="M145.9,36.27c-.05,0-.1-.02-.14-.05-.04-.03-.06-.07-.06-.13,0-.02.01-.05.03-.1l1.52-2.4c-.36-.45-.82-.77-1.36-.95s-1.09-.28-1.65-.28c-.13,0-.33.02-.61.05-.28.03-.55.08-.82.15-.27.07-.51.17-.72.29-.21.12-.31.27-.31.46,0,.13.05.25.16.35.47.45.95.88,1.43,1.3s.97.84,1.45,1.28l2.88,2.59c.22.2.39.44.5.71.11.27.16.56.16.86,0,.51-.14.96-.42,1.33-.28.37-.63.68-1.06.92-.42.24-.88.42-1.38.54-.5.12-.96.18-1.39.18-.46,0-.94-.07-1.43-.2-.5-.13-.95-.33-1.37-.6s-.76-.6-1.02-1-.4-.87-.4-1.4c0-.18.02-.37.06-.56s.1-.37.18-.54c.08-.17.16-.32.26-.45.1-.13.2-.22.32-.29.06-.02.1-.03.11-.03.11,0,.16.04.16.13,0,.04-.02.08-.05.11-.19.19-.35.43-.49.73-.13.29-.2.59-.2.9,0,.48.12.9.38,1.26.25.36.57.65.95.89s.8.41,1.26.53.89.18,1.3.18c.2,0,.45-.01.74-.04s.57-.08.84-.18.49-.22.68-.39c.19-.17.28-.4.28-.69,0-.21-.08-.39-.24-.54-.88-.81-1.76-1.61-2.65-2.39s-1.78-1.58-2.66-2.38c-.23-.21-.42-.46-.54-.74-.13-.27-.19-.56-.19-.88,0-.47.13-.88.38-1.22.26-.35.58-.63.96-.86.38-.23.8-.4,1.25-.51.45-.11.87-.17,1.26-.17.6,0,1.18.1,1.75.3.57.2,1.06.53,1.46.98l.8-1.28s.08-.06.13-.06c.04,0,.08.01.12.03s.06.06.06.11c0,.02-.01.05-.03.1l-2.48,4c-.04.05-.09.08-.14.08Z"/>
  </g>
</svg>