<?xml version="1.0" encoding="UTF-8"?>
<svg id="Layer_1" data-name="Layer 1" xmlns="http://www.w3.org/2000/svg" viewBox="0 0 179.12 72">
  <defs>
    <style>
      .cls-1 {
        fill: #a14037;
      }

      .cls-2 {
        fill: #d75549;
      }

      .cls-3 {
        fill: #fff;
      }
    </style>
  </defs>
  <g>
    <rect x="24.35" y="11.69" width="130.42" height="48.62" rx="14.19" ry="14.19"/>
    <g>
      <rect class="cls-1" x="27.95" y="15.29" width="130.42" height="48.62" rx="14.19" ry="14.19"/>
      <rect class="cls-1" x="27.59" y="14.93" width="130.42" height="48.62" rx="14.19" ry="14.19"/>
      <rect class="cls-1" x="27.23" y="14.57" width="130.42" height="48.62" rx="14.19" ry="14.19"/>
      <rect class="cls-1" x="26.87" y="14.21" width="130.42" height="48.62" rx="14.19" ry="14.19"/>
      <rect class="cls-1" x="26.51" y="13.85" width="130.42" height="48.62" rx="14.19" ry="14.19"/>
      <rect class="cls-1" x="26.15" y="13.49" width="130.42" height="48.62" rx="14.19" ry="14.19"/>
      <rect class="cls-1" x="25.79" y="13.13" width="130.42" height="48.62" rx="14.19" ry="14.19"/>
      <rect class="cls-1" x="25.43" y="12.77" width="130.42" height="48.62" rx="14.19" ry="14.19"/>
      <rect class="cls-1" x="25.07" y="12.41" width="130.42" height="48.62" rx="14.19" ry="14.19"/>
      <rect class="cls-1" x="24.71" y="12.05" width="130.42" height="48.62" rx="14.19" ry="14.19"/>
      <rect class="cls-1" x="24.35" y="11.69" width="130.42" height="48.62" rx="14.19" ry="14.19"/>
    </g>
    <rect class="cls-2" x="24.35" y="11.69" width="130.42" height="48.62" rx="14.19" ry="14.19"/>
  </g>
  <g>
    <path class="cls-3" d="M66.2,43.36c-.12,0-.18-.06-.18-.18,0-.05.02-.1.06-.13.04-.03.08-.05.14-.05h1.26v-10.66h-1.25c-.12,0-.18-.06-.18-.18,0-.11.05-.16.16-.16h5.26c.11,0,.16.05.16.16,0,.12-.06.18-.18.18h-1.38v10.66h4.61v-1.74c0-.05.02-.1.05-.14.03-.04.07-.06.13-.06.12,0,.18.06.18.18v2.11h-8.85Z"/>
    <path class="cls-3" d="M75.82,43.19c0-.05.02-.1.06-.13.04-.03.08-.05.14-.05h1.31v-10.66h-1.31c-.05,0-.1-.02-.14-.05-.04-.03-.06-.07-.06-.13s.02-.09.06-.12c.04-.03.08-.04.12-.04h5.22s.08.01.12.04c.04.03.06.07.06.12s-.02.1-.06.13c-.04.03-.08.05-.14.05h-1.31v10.66h1.31c.05,0,.1.02.14.05.04.03.06.08.06.13,0,.12-.06.18-.18.18h-5.22c-.12,0-.18-.06-.18-.18Z"/>
    <path class="cls-3" d="M91.88,43.19c0,.12-.06.18-.18.18s-.18-.06-.18-.18v-2.93l-7.74-5.02v7.78h1.1c.12,0,.18.06.18.18s-.05.18-.16.18h-2.59c-.11,0-.16-.06-.16-.18s.06-.18.18-.18h1.1v-10.83c0-.11.05-.16.16-.16.04,0,.25.12.62.34.37.23.83.52,1.38.87.55.35,1.15.74,1.79,1.15.65.42,1.25.81,1.82,1.19.57.38,1.07.71,1.5.99.43.28.7.46.82.54v-4.75h-1.1c-.12,0-.18-.06-.18-.18,0-.11.05-.16.16-.16h2.59s.08.01.12.04c.04.03.06.07.06.12s-.02.1-.06.13c-.04.03-.08.05-.14.05h-1.1v10.83Z"/>
    <path class="cls-3" d="M94.12,43.36c-.12,0-.18-.06-.18-.18,0-.05.02-.1.06-.13.04-.03.08-.05.14-.05h1.33v-10.66h-1.33c-.05,0-.1-.02-.14-.05-.04-.03-.06-.07-.06-.13s.02-.09.06-.12c.04-.03.08-.04.12-.04h3.87v10.99h1.65c.12,0,.18.06.18.18s-.05.18-.16.18h-5.54ZM104.9,41.68c0,.54-.18.96-.53,1.25s-.83.43-1.42.43c-.21,0-.46-.05-.74-.14-.28-.09-.51-.19-.69-.3-.41-.22-.78-.5-1.11-.82-.34-.32-.64-.67-.9-1.06-.27-.38-.5-.79-.7-1.22-.2-.43-.37-.85-.5-1.28.83-1.04,1.66-2.07,2.48-3.1s1.65-2.07,2.48-3.11h-2.27c-.05,0-.1-.02-.14-.05-.04-.03-.06-.07-.06-.13s.02-.09.06-.12c.04-.03.09-.04.13-.04h3.38c.12,0,.18.05.18.16,0,.12-.06.18-.18.18h-.66l-5.02,6.29c.15.45.37.93.65,1.44.28.51.61.98.99,1.42s.8.79,1.26,1.08.96.43,1.48.43c.47,0,.83-.12,1.09-.36.26-.24.38-.56.38-.97,0-.31-.07-.54-.22-.69s-.27-.25-.38-.3c-.07-.03-.11-.08-.11-.14,0-.11.05-.16.14-.16.11,0,.21.04.32.1.11.07.2.17.29.29.09.12.16.26.22.42s.09.32.09.49Z"/>
    <path class="cls-3" d="M111.69,36.27c-.05,0-.1-.02-.14-.05-.04-.03-.06-.07-.06-.13,0-.02.01-.05.03-.1l1.52-2.4c-.36-.45-.82-.77-1.36-.95s-1.09-.28-1.65-.28c-.13,0-.33.02-.61.05s-.55.08-.82.15-.51.17-.72.29c-.21.12-.31.27-.31.46,0,.13.05.25.16.35.47.45.95.88,1.43,1.3s.97.84,1.45,1.28l2.88,2.59c.22.2.39.44.5.71.11.27.16.56.16.86,0,.51-.14.95-.42,1.33-.28.37-.63.68-1.06.92-.42.24-.88.42-1.38.54-.5.12-.97.18-1.39.18-.46,0-.94-.07-1.43-.2-.5-.13-.95-.33-1.37-.6s-.76-.6-1.02-1c-.27-.4-.4-.87-.4-1.4,0-.18.02-.37.06-.56.04-.19.1-.37.18-.54.07-.17.16-.32.26-.45.1-.13.2-.22.32-.29.06-.02.1-.03.11-.03.11,0,.16.04.16.13,0,.04-.02.08-.05.11-.19.19-.35.43-.49.73-.13.29-.2.59-.2.9,0,.48.13.9.38,1.26s.57.65.95.89c.38.24.81.41,1.26.53.46.12.89.18,1.3.18.2,0,.45-.01.74-.04.29-.03.57-.08.84-.18s.49-.22.68-.39c.19-.17.28-.4.28-.69,0-.21-.08-.39-.24-.54-.88-.81-1.76-1.61-2.65-2.39s-1.78-1.58-2.66-2.38c-.23-.21-.42-.46-.54-.74-.13-.27-.19-.56-.19-.88,0-.47.13-.88.38-1.22.26-.35.58-.63.96-.86.38-.23.8-.4,1.25-.51.45-.11.87-.17,1.26-.17.6,0,1.18.1,1.75.3.57.2,1.06.53,1.46.98l.8-1.28s.07-.06.13-.06c.04,0,.08.01.12.03.04.02.06.06.06.11,0,.02-.01.05-.03.1l-2.48,4c-.04.05-.09.08-.14.08Z"/>
  </g>
</svg>