<?xml version="1.0" encoding="UTF-8"?>
<svg id="Layer_1" data-name="Layer 1" xmlns="http://www.w3.org/2000/svg" viewBox="0 0 179.12 72">
  <defs>
    <style>
      .cls-1 {
        fill: #a14037;
      }

      .cls-2 {
        fill: #d75549;
      }

      .cls-3 {
        fill: #fff;
      }
    </style>
  </defs>
  <g>
    <rect x="24.35" y="11.69" width="130.42" height="48.62" rx="14.19" ry="14.19"/>
    <g>
      <rect class="cls-1" x="27.95" y="15.29" width="130.42" height="48.62" rx="14.19" ry="14.19"/>
      <rect class="cls-1" x="27.59" y="14.93" width="130.42" height="48.62" rx="14.19" ry="14.19"/>
      <rect class="cls-1" x="27.23" y="14.57" width="130.42" height="48.62" rx="14.19" ry="14.19"/>
      <rect class="cls-1" x="26.87" y="14.21" width="130.42" height="48.62" rx="14.19" ry="14.19"/>
      <rect class="cls-1" x="26.51" y="13.85" width="130.42" height="48.62" rx="14.19" ry="14.19"/>
      <rect class="cls-1" x="26.15" y="13.49" width="130.42" height="48.62" rx="14.19" ry="14.19"/>
      <rect class="cls-1" x="25.79" y="13.13" width="130.42" height="48.62" rx="14.19" ry="14.19"/>
      <rect class="cls-1" x="25.43" y="12.77" width="130.42" height="48.62" rx="14.19" ry="14.19"/>
      <rect class="cls-1" x="25.07" y="12.41" width="130.42" height="48.62" rx="14.19" ry="14.19"/>
      <rect class="cls-1" x="24.71" y="12.05" width="130.42" height="48.62" rx="14.19" ry="14.19"/>
      <rect class="cls-1" x="24.35" y="11.69" width="130.42" height="48.62" rx="14.19" ry="14.19"/>
    </g>
    <rect class="cls-2" x="24.35" y="11.69" width="130.42" height="48.62" rx="14.19" ry="14.19"/>
  </g>
  <g>
    <path class="cls-3" d="M69.45,43.19c0-.12.06-.18.18-.18h1.33v-10.22l-3.73,9.22c-.04.07-.1.11-.16.11-.09,0-.14-.04-.18-.11l-3.82-9.25v10.26h1.42c.05,0,.1.02.14.05.04.03.06.07.06.13,0,.12-.06.18-.18.18h-3.1c-.12,0-.18-.06-.18-.18,0-.05.02-.1.06-.13.04-.03.08-.05.14-.05h1.3v-10.66h-1.17c-.05,0-.1-.02-.14-.05-.04-.03-.06-.07-.06-.13s.02-.09.06-.12c.04-.03.08-.04.12-.04h5.76c.11,0,.16.05.16.16,0,.12-.06.18-.18.18h-1.49l2.51,6.06,2.45-6.06h-1.09c-.12,0-.18-.06-.18-.18,0-.11.05-.16.16-.16h5.25s.08.01.12.04c.04.03.06.07.06.12s-.02.1-.06.13c-.04.03-.08.05-.14.05h-1.36v10.66h1.38c.12,0,.18.06.18.18s-.05.18-.16.18h-5.3c-.11,0-.16-.06-.16-.18Z"/>
    <path class="cls-3" d="M84.82,43.3s-.06.04-.1.06h-8.72c-.12,0-.18-.06-.18-.18,0-.05.02-.1.06-.13.04-.03.08-.05.14-.05h1.33v-10.66h-1.33c-.05,0-.1-.02-.14-.05-.04-.03-.06-.07-.06-.13s.02-.09.06-.12c.04-.03.08-.04.12-.04h7.92c.11,0,.16.05.16.14v1.46c0,.11-.06.16-.18.16s-.18-.06-.18-.18v-1.25h-3.86v3.22h3.68v-.64s.02-.08.05-.12c.03-.04.07-.06.13-.06.12,0,.18.06.18.18v1.62c0,.12-.06.18-.18.18s-.18-.06-.18-.18v-.64h-3.68v7.1h4.64v-1.79c0-.12.06-.18.18-.18s.18.05.18.16v2s-.02.07-.05.1Z"/>
    <path class="cls-3" d="M92.71,43.35c-.58,0-1.13-.14-1.66-.41-.53-.27-.98-.61-1.37-1.02v1.44h-3.86c-.05,0-.1-.02-.14-.05-.04-.03-.06-.07-.06-.12s.02-.09.06-.12c.04-.03.08-.05.14-.05h1.33v-10.67h-1.33c-.05,0-.1-.02-.14-.05-.04-.03-.06-.07-.06-.13s.02-.09.06-.12c.04-.03.08-.04.13-.04h3.86v1.42c.18-.19.38-.38.61-.55.22-.18.46-.33.72-.46.26-.13.52-.23.79-.3.27-.07.55-.11.82-.11.78,0,1.47.16,2.07.49.6.33,1.11.75,1.53,1.28.42.53.73,1.13.94,1.82s.32,1.38.32,2.1-.11,1.38-.32,2.06-.53,1.28-.94,1.82c-.41.53-.91.96-1.5,1.29s-1.27.49-2.02.49ZM97.16,37.69c0-.48-.06-.96-.17-1.45-.11-.49-.28-.95-.5-1.38-.22-.43-.49-.83-.82-1.19s-.72-.65-1.17-.87c-.25-.13-.51-.23-.78-.31-.28-.08-.55-.12-.83-.12-.66,0-1.26.14-1.79.42s-1,.67-1.41,1.19v7.44c.41.51.88.91,1.42,1.19.54.28,1.14.42,1.82.42.27,0,.54-.05.82-.14s.54-.2.78-.31c.44-.22.82-.52,1.15-.87.33-.36.61-.76.82-1.19.22-.44.38-.9.5-1.39.11-.49.17-.96.17-1.43Z"/>
    <path class="cls-3" d="M98.28,43.19c0-.05.02-.1.06-.13.04-.03.08-.05.14-.05h1.31v-10.66h-1.31c-.05,0-.1-.02-.14-.05-.04-.03-.06-.07-.06-.13s.02-.09.06-.12c.04-.03.08-.04.12-.04h5.22s.08.01.12.04c.04.03.06.07.06.12s-.02.1-.06.13c-.04.03-.08.05-.14.05h-1.31v10.66h1.31c.05,0,.1.02.14.05.04.03.06.07.06.13,0,.12-.06.18-.18.18h-5.22c-.12,0-.18-.06-.18-.18Z"/>
    <path class="cls-3" d="M113.29,43.36c-.12,0-.18-.06-.18-.18s.06-.18.18-.18h1.58l-1.84-3.63c-.59-.5-1.24-.93-1.95-1.28-.71-.35-1.46-.58-2.22-.67l-2.64,5.58h2.3c.12,0,.18.06.18.18s-.06.18-.18.18h-3.71c-.13,0-.19-.06-.19-.19,0-.05.02-.09.06-.12.04-.03.08-.04.14-.04h1.02l1.01-2.11c-.21,0-.41-.05-.58-.15-.18-.1-.33-.23-.46-.4-.13-.17-.23-.35-.3-.54-.07-.2-.1-.39-.1-.58,0-.36.09-.68.26-.95.17-.27.39-.5.66-.69.27-.19.58-.33.92-.42.34-.09.69-.14,1.04-.14h.18c.06,0,.12,0,.18.02l1.54-3.26-.72-1.42h-.86c-.12,0-.18-.06-.18-.18,0-.11.06-.16.18-.16h4.72c.12,0,.18.05.18.16,0,.12-.06.18-.19.18h-.8l5.39,10.66h1.06c.05,0,.1.02.14.05.04.03.06.07.06.13s-.02.1-.06.13c-.04.03-.08.05-.14.05h-5.66ZM108.39,37.38c-.29,0-.59.03-.9.09s-.6.16-.86.3c-.26.14-.47.34-.63.58-.17.24-.25.54-.25.89,0,.14.03.29.08.44.05.15.13.3.22.42.1.13.21.23.34.32s.27.13.42.13c.08,0,.15,0,.19-.02l1.49-3.15h-.1ZM110.39,34.18l-1.38,2.91c.66.1,1.3.28,1.9.55s1.18.61,1.73,1l-2.26-4.46Z"/>
  </g>
</svg>