<?xml version="1.0" encoding="UTF-8"?>
<svg id="Layer_1" xmlns="http://www.w3.org/2000/svg" version="1.1" viewBox="0 0 776.61 70.2">
  <!-- Generator: Adobe Illustrator 29.4.0, SVG Export Plug-In . SVG Version: 2.1.0 Build 152)  -->
  <defs>
    <style>
      .st0 {
        isolation: isolate;
      }

      .st1 {
        fill: #fff;
      }
    </style>
  </defs>
  <g class="st0">
    <path class="st1" d="M0,68.94c3.33-2.34,5.49-8.55,5.49-17.73V11.7C4.59,7.02,2.61,3.78.09,1.35h14.49l9.72,21.69.09-.09c-2.16-10.98-.63-21.6,10.17-21.6h14.49c-2.43,2.34-5.94,10.62-5.94,23.94l.09,37.8c.81,4.05,4.14,5.13,5.85,5.13v.63h-17.73L6.75,14.49v38.16c0,10.8,6.48,15.39,16.65,15.39v.81l-23.4.09ZM41.85,62.19V22.14c0-11.52-2.25-19.62-8.28-19.62-11.07,0-10.89,16.56-5.76,28.26l14.04,31.41Z"/>
  </g>
  <g class="st0">
    <path class="st1" d="M49.05,34.11C49.05,10.26,61.38,0,73.08,0s23.94,10.08,23.94,34.11-12.33,36.09-24.03,36.09-23.94-11.16-23.94-36.09ZM82.89,34.11c0-21.6-4.59-33.12-9.81-33.12s-9.99,11.7-9.99,33.12c0,22.77,4.77,35.19,9.9,35.19s9.9-12.33,9.9-35.19Z"/>
  </g>
  <g class="st0">
    <path class="st1" d="M120.96,68.85l-18.54-50.4c-4.05-10.89-4.86-12.33-8.37-17.19h20.16c-.72,2.43-.99,6.12.81,10.89l12.96,35.01,10.89-29.16c-1.89-5.31-5.13-12.42-8.19-16.74h20.7c-2.16,2.43-1.26,7.11.27,12.69l6.39,16.56h.18c-1.08-17.64,8.01-29.16,21.69-29.16h5.67c-2.52,1.98-6.48,8.55-9,15.48l-18.99,52.02-18.27-49.59-18.36,49.59ZM164.43,47.25l9-24.57c3.78-10.26.72-15.84-3.51-15.84-5.31,0-12.42,9.09-10.35,27.81l4.86,12.6Z"/>
  </g>
  <g class="st0">
    <path class="st1" d="M184.77,68.85c2.52-3.51,3.15-8.73,3.15-16.02V17.37c0-7.29-.63-12.51-3.15-16.02h19.71c-2.52,3.51-3.15,8.73-3.15,16.02v14.13l20.97.18v-14.31c0-7.29-.63-12.51-3.15-16.02h19.71c-2.52,3.51-3.15,8.73-3.15,16.02v35.46c0,7.29.63,12.51,3.15,16.02h-19.71c2.52-3.51,3.15-8.73,3.15-16.02v-19.53h-20.97v19.53c0,7.29.63,12.51,3.15,16.02h-19.71Z"/>
  </g>
  <g class="st0">
    <path class="st1" d="M241.83,68.85c3.15-3.51,2.88-6.66,2.88-15.93V17.37c0-9.36.27-12.51-2.88-16.02h42.03l1.8,27.45h-.9c-1.8-15.3-6.75-26.19-17.28-26.19h-9.36v30.33h3.96c5.49,0,8.55-7.83,8.55-16.92h.9v35.28h-.9c0-10.71-3.15-17.46-8.55-17.46h-3.96v33.75h8.73c11.16,0,16.65-9.9,19.71-29.07h.9l-3.87,30.33h-41.76Z"/>
    <path class="st1" d="M321.57,68.85c.81-10.62-1.71-18.72-4.5-25.74-2.88-7.74-6.3-13.86-6.3-21.24h.9c.09,5.31,2.34,8.46,4.77,8.46,2.61,0,5.4-4.05,5.4-13.59,0-7.74-3.51-14.13-11.25-14.13h-3.87v50.22c0,7.29.63,12.51,3.15,16.02h-19.8c2.61-3.51,3.24-8.73,3.24-16.02V17.37c0-4.41.18-11.97-3.24-16.11l28.62.18c8.55,0,16.29,3.78,16.29,16.2,0,11.07-6.93,16.47-13.32,16.47-3.33,0-6.48-1.35-8.55-4.14,1.98,4.95,5.67,8.64,9.54,12.42,6.93,6.48,14.31,13.59,14.31,26.46h-15.39Z"/>
    <path class="st1" d="M340.56,68.85c3.15-3.51,2.88-6.66,2.88-15.93V17.37c0-9.36.27-12.51-2.88-16.02h42.03l1.8,27.45h-.9c-1.8-15.3-6.75-26.19-17.28-26.19h-9.36v30.33h3.96c5.49,0,8.55-7.83,8.55-16.92h.9v35.28h-.9c0-10.71-3.15-17.46-8.55-17.46h-3.96v33.75h8.73c11.16,0,16.65-9.9,19.71-29.07h.9l-3.87,30.33h-41.76Z"/>
  </g>
  <g class="st0">
    <path class="st1" d="M406.17,68.94c3.33-2.34,5.49-8.55,5.49-17.73V11.7c-.9-4.68-2.88-7.92-5.4-10.35h14.49l9.72,21.69.09-.09c-2.16-10.98-.63-21.6,10.17-21.6h14.49c-2.43,2.34-5.94,10.62-5.94,23.94l.09,37.8c.81,4.05,4.14,5.13,5.85,5.13v.63h-17.73l-24.57-54.36v38.16c0,10.8,6.48,15.39,16.65,15.39v.81l-23.4.09ZM448.02,62.19V22.14c0-11.52-2.25-19.62-8.28-19.62-11.07,0-10.89,16.56-5.76,28.26l14.04,31.41Z"/>
  </g>
  <g class="st0">
    <path class="st1" d="M458.19,68.85c3.15-3.51,2.88-6.66,2.88-15.93V17.37c0-9.36.27-12.51-2.88-16.02h42.03l1.8,27.45h-.9c-1.8-15.3-6.75-26.19-17.28-26.19h-9.36v30.33h3.96c5.49,0,8.55-7.83,8.55-16.92h.9v35.28h-.9c0-10.71-3.15-17.46-8.55-17.46h-3.96v33.75h8.73c11.16,0,16.65-9.9,19.71-29.07h.9l-3.87,30.33h-41.76Z"/>
  </g>
  <g class="st0">
    <path class="st1" d="M538.29,68.85c1.53-1.62,2.25-4.05.09-10.98l-4.5-14.76c-1.26,13.95-5.85,25.92-16.47,25.83l-14.94-.09c3.51-2.97,7.83-9.45,10.8-19.08l11.34-36.63c-1.26-3.6-4.86-9.72-8.37-11.79h18.63l17.82,59.76c1.08,3.69,2.52,5.94,5.13,7.74h-19.53ZM533.07,40.59l-7.83-25.65-9.99,31.86c-2.7,8.73-.09,19.26,5.04,19.26,7.83,0,11.97-11.07,12.78-25.47Z"/>
  </g>
  <g class="st0">
    <path class="st1" d="M587.7,68.85c.81-10.62-1.71-18.72-4.5-25.74-2.88-7.74-6.3-13.86-6.3-21.24h.9c.09,5.31,2.34,8.46,4.77,8.46,2.61,0,5.4-4.05,5.4-13.59,0-7.74-3.51-14.13-11.25-14.13h-3.87v50.22c0,7.29.63,12.51,3.15,16.02h-19.8c2.61-3.51,3.24-8.73,3.24-16.02V17.37c0-4.41.18-11.97-3.24-16.11l28.62.18c8.55,0,16.29,3.78,16.29,16.2,0,11.07-6.93,16.47-13.32,16.47-3.33,0-6.48-1.35-8.55-4.14,1.98,4.95,5.67,8.64,9.54,12.42,6.93,6.48,14.31,13.59,14.31,26.46h-15.39Z"/>
  </g>
  <g class="st0">
    <path class="st1" d="M638.73,68.85c2.61-3.51,3.24-8.73,3.24-16.02v-14.22l-14.22-30.15c-1.98-4.14-2.79-5.67-4.77-7.11h19.44c-1.26.81-1.8,6.03-.27,9.27l10.08,21.33.18-.18c-1.53-7.92-1.35-13.68-.18-17.82,2.79-11.34,12.33-12.6,14.94-12.6h7.74c-1.98,1.08-4.77,4.23-7.11,9.45l-12.42,27.81v14.13c0,7.29.63,12.51,3.15,16.11h-19.8ZM663.84,16.65c3.6-7.38,1.17-11.61-2.52-11.61-3.24,0-6.75,2.97-8.19,9.09-1.71,6.39-1.17,13.68,1.71,23.04l9-20.52Z"/>
  </g>
  <g class="st0">
    <path class="st1" d="M671.31,34.11c0-23.85,12.33-34.11,24.03-34.11s23.94,10.08,23.94,34.11-12.33,36.09-24.03,36.09-23.94-11.16-23.94-36.09ZM705.15,34.11c0-21.6-4.59-33.12-9.81-33.12s-9.99,11.7-9.99,33.12c0,22.77,4.77,35.19,9.9,35.19s9.9-12.33,9.9-35.19Z"/>
    <path class="st1" d="M776.61,1.35c-3.33,4.95-3.78,13.14-3.78,18.72v26.91c0,16.2-11.07,23.22-23.31,23.22-13.23,0-23.49-7.56-23.49-26.28v-26.55c0-7.29-.63-12.51-3.15-16.02h19.71c-2.52,3.51-3.15,8.73-3.15,16.02v29.61c0,14.22,7.47,20.7,15.21,20.7,8.37,0,16.92-7.47,16.92-20.7v-.36c-11.52-12.87-18.18-25.2-18.18-34.02,0-6.84,3.96-11.25,12.87-11.25h10.35ZM771.57,45.45v-25.38c0-10.71-4.86-15.93-9.09-15.93-3.6,0-7.56,2.79-7.56,9.18s4.41,17.1,16.65,32.13Z"/>
  </g>
</svg>