<?xml version="1.0" encoding="UTF-8"?>
<svg id="Layer_1" data-name="Layer 1" xmlns="http://www.w3.org/2000/svg" viewBox="0 0 677.67 114.81">
  <defs>
    <style>
      .cls-1 {
        fill: #d94c27;
      }
    </style>
  </defs>
  <g>
    <path class="cls-1" d="M407.47,41.63h30.76v13.08l-8.06-.37v27.55h-14.63v-27.55l-8.06.37v-13.08Z"/>
    <path class="cls-1" d="M441.44,38.59h13.78v11.96l-.64,7.85h.21c2.56-3.04,5.18-5.5,9.13-5.5,7.05,0,9.56,5.34,9.56,11.59v17.41h-13.46v-14.63c0-1.49-.21-3.36-2.19-3.36-2.14,0-2.62,1.6-2.62,3.36v14.63h-13.78v-43.31Z"/>
    <path class="cls-1" d="M490.53,70.04c0,2.3.37,4.86,3.26,4.86,1.44,0,2.51-1.01,2.78-2.35h13.4c-1.82,6.84-9.45,9.99-15.97,9.99-8.92,0-17.09-4.59-17.09-14.36s7.26-15.27,16.29-15.27c10.09,0,18.05,6.51,17.35,17.14h-20.02ZM496.99,64.17c0-1.92-1.39-3.69-3.36-3.69-2.08,0-3.1,1.71-3.1,3.69h6.46Z"/>
    <path class="cls-1" d="M534.02,78.16h-.32c-2.51,2.67-4.75,4.38-8.65,4.38-7.69,0-11.96-7.8-11.96-14.69s4.33-14.95,12.34-14.95c3.42,0,6.25,1.23,8.28,4h.32l-.43-3.36h13.51v28.35h-13.51l.43-3.74ZM530.33,71.75c2.62,0,3.68-2.08,3.68-4.27s-1.49-3.79-3.68-3.79-3.58,1.82-3.58,3.9c0,2.24,1.07,4.17,3.58,4.17Z"/>
    <path class="cls-1" d="M568.2,53.91l4.59-.21v10.84l-4.59-.27v17.62h-13.88v-17.62l-3.36.27v-10.84l3.36.21v-9.5h13.88v9.5Z"/>
    <path class="cls-1" d="M588.39,70.04c0,2.3.37,4.86,3.26,4.86,1.44,0,2.51-1.01,2.78-2.35h13.4c-1.82,6.84-9.45,9.99-15.97,9.99-8.92,0-17.09-4.59-17.09-14.36s7.26-15.27,16.29-15.27c10.09,0,18.05,6.51,17.36,17.14h-20.02ZM594.85,64.17c0-1.92-1.39-3.69-3.36-3.69-2.08,0-3.1,1.71-3.1,3.69h6.46Z"/>
    <path class="cls-1" d="M636.24,66.89c-1.44-.85-2.46-1.55-4.22-1.55-3.58,0-5.39,2.14-5.39,5.66v10.89h-13.78v-28.35h13.78l-.32,3.79h.32c2.46-3.74,4.97-4.54,9.61-4.43v13.99Z"/>
  </g>
  <g>
    <path class="cls-1" d="M30.74,41.59h26.97v11.53h-12.23v4.17h10.73v10.47h-10.73v14.1h-14.74v-40.26Z"/>
    <path class="cls-1" d="M109,53.5v14.63c0,1.66.11,3.42,2.35,3.42s2.35-1.76,2.35-3.42v-14.63h13.67v16.02c0,8.97-7.8,12.98-16.02,12.98s-16.02-4-16.02-12.98v-16.02h13.67Z"/>
    <path class="cls-1" d="M155.94,66.85c-1.44-.85-2.46-1.55-4.22-1.55-3.58,0-5.39,2.14-5.39,5.66v10.89h-13.78v-28.35h13.78l-.32,3.79h.32c2.46-3.74,4.97-4.54,9.61-4.43v13.99Z"/>
    <path class="cls-1" d="M176.88,53.87l4.59-.21v10.84l-4.59-.27v17.62h-13.88v-17.62l-3.36.27v-10.84l3.36.21v-9.5h13.88v9.5Z"/>
    <path class="cls-1" d="M184.3,38.54h13.78v11.96l-.64,7.85h.21c2.56-3.04,5.18-5.5,9.13-5.5,7.05,0,9.56,5.34,9.56,11.59v17.41h-13.46v-14.63c0-1.49-.21-3.36-2.19-3.36-2.14,0-2.62,1.6-2.62,3.36v14.63h-13.78v-43.31Z"/>
    <path class="cls-1" d="M90.01,54.1c-.23-.61-.91-.76-1.51-.49-6.8,3.09-13.98,1.6-20.22-3.93-.49-.44-1.16-.6-1.59-.11-2.7,3.07-4.39,6.18-5.92,13.92-1.99,10.13,4.87,20.02,10.97,21.22,5.02.99,16.19-5.35,18.18-15.48,1.5-7.63,1.28-11.93.08-15.14ZM65.56,58.33c1.01-1.09,2.62-1.5,4.15-1.33,1.53.15,2.89,1.28,3.46,2.65.16.35-.35.65-.57.34-1.79-2.38-4.1-1.7-6.5-.81-.28.09-.58-.07-.66-.36-.05-.18,0-.36.12-.48ZM69.71,62.71c1.88,1.15,2.54,3.57,1.58,5.57-.51-1.36-1.82-2.76-3.65-3.72-1.14-.6-2.31-.93-3.38-1.01,1.38-1.53,3.66-1.93,5.44-.84ZM72.22,79.35c-3.92-1.02-6.43-4.74-6.15-8.73,1.54,1.39,3.59,2.57,5.96,3.36,3.78,1.26,7.51,1.2,10.1.09-1.51,4.02-5.77,6.36-9.91,5.28ZM83.16,67.61c-2.05.19-3.79,1-4.78,2.06-.13-2.21,1.4-4.2,3.57-4.55,2.06-.33,4.02.9,4.72,2.84-1.02-.33-2.23-.47-3.51-.35ZM87.14,63.3c-.17.06-.35.03-.49-.07-1.01-.75-1.76-1.72-2.93-2.13-1.14-.43-2.34-.2-3.42.4-.33.21-.68-.27-.4-.53,2.16-2.36,6.48-1.19,7.54,1.67.1.27-.04.57-.3.66Z"/>
  </g>
  <g>
    <path class="cls-1" d="M258.5,41.93l5.07,24.03h.32c.27-2.46.59-5.02,1.23-7.42l4.27-16.61h11.21l5.5,24.03h.32c.21-2.35.48-4.81,1.01-7.1l4.06-16.93h15.22l-14.2,40.26h-12.76l-4.59-21.89h-.48c-.16,2.08-.27,4.11-.75,6.09l-4.06,15.81h-12.44l-14.1-40.26h15.17Z"/>
    <path class="cls-1" d="M342.78,38.88h13.78v43.31h-13.78v-43.31Z"/>
    <path class="cls-1" d="M362.7,38.88h13.78v43.31h-13.78v-43.31Z"/>
    <path class="cls-1" d="M334.18,53.65c-.19-.63-.86-.82-1.47-.59-7,2.61-14.06.64-19.9-5.3-.46-.47-1.11-.68-1.58-.21-2.9,2.88-4.8,5.86-6.85,13.48-2.68,9.97,3.49,20.3,9.49,21.92,4.94,1.33,16.52-4.23,19.2-14.2,2.02-7.51,2.09-11.81,1.12-15.1ZM309.16,56.93c1.72.86,3.89,1.03,5.37-.28.45-.41.82-.89,1.26-1.4.14-.18.46-.03.4.19-.74,3.2-4.9,3.25-7.21,1.84-.22-.11-.05-.46.18-.35ZM312.97,61.54c1.25-.3,2.36-.82,3.21-1.46-.04,2.06-1.49,3.86-3.55,4.21-2.18.37-4.26-1.02-4.85-3.16,1.28.69,3.19.89,5.19.41ZM322.57,77.65c-1.37-1.25-3.12-2.36-5.12-3.18-3.3-1.36-6.62-1.66-9.19-1.04-.34.08-.6-.31-.42-.61,2-3.34,6.05-4.98,9.79-3.72,3.57,1.19,5.76,4.64,5.61,8.3-.01.34-.42.48-.67.25ZM324.24,67.65c-1.6-1.33-1.96-3.62-.96-5.42.42.99,1.11,1.99,2.05,2.87,1.49,1.42,3.24,2.2,4.7,2.25-1.58,1.55-4.08,1.71-5.78.3ZM330.55,63.56c-2.7-.05-6.19-2.33-5.09-5.42.08-.22.43-.17.45.06.04,2.85,1.83,4.71,4.68,4.97.25.02.21.42-.04.39Z"/>
    <path class="cls-1" d="M336.19,57.76c-.22,0-.39.17-.39.39,0,2.93-.57,6.42-1.76,10.86-.7,2.59-1.96,4.9-3.55,6.89-1.24,1.56-1.96,3.46-1.96,5.46v.39c0,.22.18.39.39.39h9.97c.22,0,.39-.18.39-.39v-23.59c0-.22-.18-.39-.39-.39h-2.71Z"/>
  </g>
</svg>