<?xml version="1.0" encoding="UTF-8"?>
<svg id="Layer_1" data-name="Layer 1" xmlns="http://www.w3.org/2000/svg" viewBox="0 0 181.03 18.08">
  <defs>
    <style>
      .cls-1 {
        fill: #e6d5db;
      }
    </style>
  </defs>
  <path class="cls-1" d="M14.51,12.9h.55l-1.41,4.32H0l.18-.58h.41c.52,0,.97-.1,1.33-.29s.61-.41.74-.66.32-.8.58-1.64L6.56,3.08c.26-.85.39-1.38.39-1.6,0-.6-.55-.9-1.65-.9h-.34l.18-.58h7.03l-.18.58h-.46c-.58,0-1.02.07-1.35.22s-.56.34-.72.6-.4.93-.73,2.02l-3.2,10.54c-.25.81-.37,1.31-.37,1.5,0,.4.16.7.48.91s1.02.31,2.11.31h.86c1.77,0,3.1-.43,4-1.29s1.52-1.69,1.88-2.49Z"/>
  <path class="cls-1" d="M25.59,5.16h3.84l-.12.41c-.46.01-.83.11-1.12.29-.29.18-.51.42-.64.71-.14.29-.32.8-.54,1.53l-1.52,5c-.27.88-.5,1.52-.68,1.92-.18.4-.46.79-.85,1.17-.39.38-.86.68-1.43.9-.57.22-1.19.33-1.88.33-1.38,0-2.42-.24-3.11-.73-.69-.49-1.04-1.21-1.04-2.19,0-.34.15-1,.44-1.98l1.58-5.21c.18-.59.27-.97.27-1.12,0-.42-.38-.63-1.15-.63h-.28l.12-.41h4.92l-.12.41h-.27c-.41,0-.74.05-.96.16-.23.1-.4.25-.5.43-.11.18-.28.65-.52,1.41l-1.55,5.11c-.32,1.05-.48,1.76-.48,2.11,0,.73.28,1.28.83,1.65.55.37,1.21.56,1.97.56.72,0,1.39-.17,2.01-.5.62-.33,1.08-.75,1.37-1.25.29-.5.58-1.23.87-2.19l1.53-5.03c.25-.83.38-1.33.38-1.5,0-.5-.51-.82-1.53-.95l.12-.41Z"/>
  <path class="cls-1" d="M34.81,15.36l6.96-10.19h3.01l-.12.41c-.6,0-1.01.05-1.2.15-.2.1-.34.24-.43.43s-.21.6-.36,1.25l-1.86,7.5c-.14.54-.2.88-.2,1.01,0,.31.13.53.39.68s.56.21.9.21h.28l-.12.41h-5.04l.12-.41h.21c.37,0,.69-.06.95-.19s.44-.28.53-.47.23-.59.39-1.22l2.11-8.42-7.36,10.71h-.43l-1.19-9.81-2.39,6.26c-.41,1.08-.62,1.76-.62,2.03,0,.41.12.7.36.86.24.16.63.25,1.17.26l-.12.41h-4.05l.12-.41c.44-.01.81-.12,1.13-.32.31-.2.57-.49.76-.86.2-.37.49-1.06.87-2.07l2.28-5.91c.26-.69.39-1.13.39-1.32,0-.24-.07-.43-.21-.56-.14-.13-.44-.19-.9-.19h-.52l.12-.41h2.81l1.27,10.19Z"/>
  <path class="cls-1" d="M48.23,16.81l-.12.41h-5.08l.12-.41h.28c.37,0,.68-.07.93-.2s.43-.29.52-.46.23-.56.4-1.15l2.32-7.67c.18-.59.28-.96.28-1.11,0-.43-.38-.64-1.15-.64h-.32l.12-.41h4.74l-.12.41h-.25c-.28,0-.54.05-.77.15-.23.1-.4.24-.49.42s-.26.64-.48,1.38l-2.25,7.38c-.17.56-.26.92-.26,1.07,0,.29.13.5.38.64s.54.2.87.2h.35Z"/>
  <path class="cls-1" d="M58.61,17.33h-.42l-3.35-10.21-1.07,4.37c-.41,1.71-.77,3.03-1.1,3.98-.32.94-.7,1.62-1.14,2.01s-.89.6-1.34.6-.8-.12-1.09-.37c-.29-.25-.44-.56-.44-.95,0-.6.23-.91.68-.91.18,0,.33.06.46.19.13.12.19.29.19.49,0,.15-.05.32-.16.52-.06.12-.09.21-.09.28,0,.11.04.2.12.26.08.06.2.09.36.09.54,0,1.04-.35,1.48-1.05s1.02-2.51,1.72-5.42l.91-3.79c.17-.67.25-1.04.25-1.1,0-.2-.09-.37-.28-.51-.19-.15-.66-.22-1.42-.24l.1-.41h2.78l3.09,9.39.74-3.07c.76-3.15,1.34-5.02,1.75-5.6.41-.58.87-.88,1.4-.88.31,0,.56.08.74.23.18.15.27.34.27.56,0,.2-.07.36-.21.49s-.3.19-.48.19c-.23,0-.43-.14-.61-.43-.1-.17-.22-.25-.36-.25-.24,0-.5.33-.78,1s-.73,2.3-1.35,4.91l-1.35,5.62Z"/>
  <path class="cls-1" d="M67.79,12.66h-3.45l-1.1,1.69c-.36.56-.58.91-.66,1.07-.08.15-.12.31-.12.48,0,.58.42.88,1.27.91h.29s-.12.42-.12.42h-4.22l.12-.41c.58-.05,1.06-.24,1.45-.57.39-.33.94-1.04,1.65-2.12l6.13-9.16h.62l-.42,9.77-.05,1.08c0,.39.11.65.34.78s.6.2,1.12.22l-.12.41h-4.73l.12-.41c.63-.01,1.05-.1,1.28-.27s.35-.37.4-.6c.04-.23.08-.68.11-1.33l.09-1.95ZM67.81,12.25l.23-5.15-3.43,5.15h3.2Z"/>
  <path class="cls-1" d="M82.43,16.22l.2.42c-.66.5-1.33.75-2.02.75s-1.21-.21-1.56-.62-.52-1.08-.52-1.99v-.73c0-.82-.06-1.41-.2-1.75-.14-.34-.34-.57-.6-.69-.25-.12-.66-.18-1.23-.18h-.44l-1.07,3.48c-.18.58-.27.93-.27,1.05,0,.31.13.53.39.66.26.13.54.19.85.19h.25l-.12.41h-4.88l.12-.41h.2c.37,0,.68-.07.93-.2.25-.13.43-.29.52-.46s.23-.56.4-1.15l2.33-7.67c.18-.59.27-.97.27-1.12,0-.21-.09-.36-.27-.47-.18-.11-.52-.16-1.04-.16l.12-.41h3.15c.88,0,1.53.02,1.97.07.44.04.88.19,1.34.44.46.25.81.57,1.05.96.25.4.37.84.37,1.33,0,.92-.38,1.69-1.13,2.31s-1.96.95-3.6,1c.87.31,1.47.74,1.8,1.29.34.55.53,1.3.57,2.27.03.74.11,1.24.23,1.49s.36.38.71.38c.3,0,.69-.16,1.16-.49ZM76.2,11.04h.36c1.52,0,2.65-.29,3.4-.87.75-.58,1.13-1.39,1.13-2.43,0-.73-.23-1.28-.69-1.65-.46-.36-1.15-.55-2.07-.55-.14,0-.3,0-.46.02l-1.67,5.48Z"/>
  <path class="cls-1" d="M84.61,8.76h-.4c.46-1.19.96-2.12,1.51-2.79.55-.68,1.07-1.02,1.56-1.02.4,0,.74.25,1.02.75.28.5.42,1.19.42,2.08,0,1.17-.18,2.55-.53,4.13.78-1.8,1.66-3.4,2.66-4.83,1-1.42,1.89-2.13,2.67-2.13.35,0,.64.1.86.29.22.2.33.44.33.74,0,.17-.05.32-.16.47-.1.15-.24.22-.42.22-.36,0-.54-.25-.55-.76,0-.3-.14-.44-.41-.44-.32,0-.77.32-1.34.96-.57.64-1.23,1.61-1.97,2.91s-1.34,2.67-1.81,4.1c-.46,1.43-.7,2.27-.7,2.51,0,.31.13.53.39.66.26.13.54.2.86.2h.52l-.12.41h-5.58l.12-.41h.53c.67,0,1.15-.19,1.44-.56.29-.37.67-1.55,1.12-3.55.46-1.99.69-3.62.69-4.87,0-.71-.05-1.23-.16-1.58-.1-.35-.26-.52-.48-.52-.29,0-.66.35-1.1,1.06-.44.71-.77,1.36-.99,1.97Z"/>
  <path class="cls-1" d="M114.72,15.79l.28.6c-.94.71-1.9,1.07-2.88,1.07s-1.73-.3-2.22-.89-.74-1.54-.74-2.84v-1.04c.01-1.18-.09-2.01-.29-2.5s-.49-.82-.85-.99-.95-.25-1.75-.25h-.63l-1.52,4.98c-.25.83-.38,1.33-.38,1.5,0,.45.18.76.55.95s.77.27,1.21.27h.36l-.18.58h-6.97l.18-.58h.28c.52,0,.97-.1,1.33-.29s.61-.41.74-.66.32-.8.58-1.64l3.33-10.96c.25-.85.38-1.38.38-1.6,0-.3-.13-.52-.38-.67s-.75-.23-1.49-.23l.18-.58h4.51c1.25,0,2.19.03,2.81.1s1.26.27,1.91.62,1.15.81,1.5,1.38.53,1.2.53,1.9c0,1.32-.54,2.42-1.62,3.3s-2.79,1.35-5.15,1.42c1.24.45,2.09,1.06,2.58,1.84s.75,1.86.81,3.25c.04,1.06.15,1.77.33,2.13s.52.55,1.02.55c.43,0,.99-.23,1.66-.7ZM105.81,8.39h.51c2.17,0,3.79-.41,4.86-1.24s1.61-1.99,1.61-3.48c0-1.05-.33-1.83-.98-2.35s-1.64-.78-2.95-.78c-.2,0-.42,0-.66.03l-2.39,7.83Z"/>
  <path class="cls-1" d="M125.73,14.17h.39l-.93,3.05h-10.09l.12-.41h.26c.37,0,.68-.07.93-.2s.43-.29.52-.46.23-.56.41-1.15l2.33-7.67c.18-.59.27-.97.27-1.12,0-.42-.38-.63-1.15-.63h-.36l.12-.41h8.59l.04,2.72h-.37c-.18-.71-.41-1.24-.7-1.59-.29-.35-.59-.55-.89-.62-.31-.07-.93-.1-1.86-.1h-1.56l-1.56,5.15h.87c.83,0,1.46-.12,1.88-.35.43-.23.82-.77,1.19-1.62h.41l-1.43,4.73h-.41c.07-.31.1-.62.1-.91,0-.49-.06-.82-.18-1.01s-.28-.31-.48-.36c-.2-.05-.56-.08-1.08-.08h-.99l-1.13,3.74c-.18.6-.27.96-.27,1.08,0,.32.14.54.41.68.28.13.75.2,1.44.2h.7c1.22,0,2.16-.21,2.82-.64s1.2-1.1,1.64-2.01Z"/>
  <path class="cls-1" d="M130.76,17.51h-.71l.6-10.41.04-.58c0-.37-.1-.62-.3-.75-.2-.13-.63-.2-1.29-.2l.05-.41h4.83l-.05.41c-.49,0-.86.05-1.11.16-.25.11-.42.25-.51.43-.08.17-.14.51-.16,1l-.44,8.18,5.08-7.57c.43-.65.65-1.09.65-1.32,0-.25-.1-.46-.31-.61s-.6-.24-1.2-.26l.11-.41h3.92l-.12.41c-.45.02-.85.19-1.2.49s-.85.93-1.49,1.88l-6.4,9.56Z"/>
  <path class="cls-1" d="M142.14,16.81l-.12.41h-5.08l.12-.41h.28c.37,0,.68-.07.93-.2s.43-.29.52-.46.23-.56.4-1.15l2.32-7.67c.18-.59.28-.96.28-1.11,0-.43-.38-.64-1.15-.64h-.32l.12-.41h4.74l-.12.41h-.25c-.28,0-.54.05-.77.15-.23.1-.4.24-.49.42s-.26.64-.48,1.38l-2.25,7.38c-.17.56-.26.92-.26,1.07,0,.29.13.5.38.64s.54.2.87.2h.35Z"/>
  <path class="cls-1" d="M153.98,14.17h.39l-.93,3.05h-10.09l.12-.41h.26c.37,0,.68-.07.93-.2s.43-.29.52-.46.23-.56.41-1.15l2.33-7.67c.18-.59.27-.97.27-1.12,0-.42-.38-.63-1.15-.63h-.36l.12-.41h8.59l.04,2.72h-.37c-.18-.71-.41-1.24-.7-1.59-.29-.35-.59-.55-.89-.62-.31-.07-.93-.1-1.86-.1h-1.56l-1.56,5.15h.87c.83,0,1.46-.12,1.88-.35.43-.23.82-.77,1.19-1.62h.41l-1.43,4.73h-.41c.07-.31.1-.62.1-.91,0-.49-.06-.82-.18-1.01s-.28-.31-.48-.36c-.2-.05-.56-.08-1.08-.08h-.99l-1.13,3.74c-.18.6-.27.96-.27,1.08,0,.32.14.54.41.68.28.13.75.2,1.44.2h.7c1.22,0,2.16-.21,2.82-.64s1.2-1.1,1.64-2.01Z"/>
  <path class="cls-1" d="M165.32,17.51h-.56l.25-9.94-6.59,9.94h-.53l.52-10.39.04-.6c0-.36-.1-.6-.28-.74s-.54-.21-1.04-.21l.12-.41h4.3l-.12.41c-.65.02-1.05.12-1.2.3-.15.18-.24.63-.28,1.35l-.39,7.94,6.63-10.01h.39l-.25,10.01,4.66-7.26c.44-.68.66-1.15.66-1.4,0-.54-.43-.85-1.28-.94l.12-.41h3.63l-.12.41c-.48.03-.89.2-1.23.52-.34.32-.82.98-1.45,2l-5.98,9.41Z"/>
  <path class="cls-1" d="M172.57,13.18h.36c.06,1.35.37,2.31.95,2.9.57.59,1.23.88,1.98.88.63,0,1.18-.21,1.65-.64.46-.42.7-.95.7-1.59,0-.46-.1-.88-.31-1.25-.21-.37-.58-.8-1.11-1.3-.86-.81-1.44-1.47-1.75-1.96s-.46-1.08-.46-1.74c0-.92.33-1.75,1-2.46s1.42-1.08,2.28-1.08c1.01,0,1.76.51,2.26,1.53.24-.38.43-.82.55-1.31h.36l-.47,3.54h-.4c0-.84-.12-1.49-.34-1.95-.22-.46-.51-.81-.85-1.05-.35-.24-.73-.36-1.15-.36-.62,0-1.12.24-1.49.72-.37.48-.56,1.02-.56,1.63,0,.5.13.93.38,1.3s.74.89,1.47,1.55c.84.78,1.37,1.41,1.58,1.91s.32,1,.32,1.51c0,1.01-.36,1.84-1.09,2.49-.73.65-1.55.98-2.45.98-1.09,0-2.02-.53-2.79-1.58-.27.36-.47.77-.6,1.23h-.44l.44-3.89Z"/>
</svg>