<?xml version="1.0" encoding="UTF-8"?>
<svg id="Layer_1" data-name="Layer 1" xmlns="http://www.w3.org/2000/svg" viewBox="0 0 768 768">
  <defs>
    <style>
      .cls-1 {
        fill: #efdbe2;
      }
    </style>
  </defs>
  <path class="cls-1" d="M286.45,0c.47,0,.94.03,1.41.09l24.5,3.2c160.08,27.36,259.77,189.11,210.99,345.48-9.26,29.69-24.32,57.09-42.56,82.09-3.18,4.35-2.73,10.36,1.1,14.15l51.09,50.53c3.41,3.38,8.6,3.98,12.83,1.71,9.74-5.21,22.09-4.53,31.15,2.32.39.29.75.62,1.1.97l186.75,186.28c2.04,2.04,3.19,4.8,3.19,7.69h0c0,2.88-1.14,5.64-3.18,7.67l-62.62,62.64c-2.04,2.04-4.8,3.18-7.68,3.18h-5.99c-2.88,0-5.65-1.15-7.69-3.19l-184.08-184.64c-.45-.45-.87-.93-1.22-1.45-5.94-8.76-6.17-20.85-1.15-30.05,2.28-4.18,1.44-9.38-1.93-12.74l-51.36-51.25c-3.75-3.74-9.67-4.24-13.97-1.14-33.25,23.96-71.35,40.86-111.95,47.99C173.65,556.35,38.82,466.69,6.65,327.6c-.06-.28-.12-.55-.16-.83L.41,288.03c-.11-.68-.14-1.37-.12-2.06.47-12.49-.81-25.59-.04-37.97C8.25,118.43,118.41,8.36,247.78.02c.26-.02.51-.02.77-.02h37.9ZM479.4,267.72c0-116.86-94.7-211.59-211.52-211.59S56.36,150.86,56.36,267.72s94.7,211.59,211.52,211.59,211.52-94.73,211.52-211.59Z"/>
</svg>